<svg id="visual" viewBox="0 0 900 600" width="900" height="600" xmlns="http://www.w3.org/2000/svg" xmlns:xlink="http://www.w3.org/1999/xlink" version="1.1"><rect width="900" height="600" fill="#015CBF"></rect><g><g transform="translate(842 348)"><path d="M181.6 -64.3C201.1 0.8 158.9 80.7 93.2 128.5C27.6 176.2 -61.6 191.8 -112.6 154.8C-163.6 117.8 -176.6 28.1 -151.4 -44.9C-126.3 -117.8 -63.2 -174.1 9 -177C81.1 -179.9 162.2 -129.5 181.6 -64.3Z" fill="#FED600"></path></g><g transform="translate(23 103)"><path d="M159.4 -53.4C183 20.8 162.2 107.8 102.9 153.7C43.6 199.6 -54.3 204.6 -117.7 159.2C-181.1 113.8 -210.1 18.1 -184.7 -58.6C-159.3 -135.2 -79.7 -192.8 -5.9 -190.9C67.9 -189 135.8 -127.6 159.4 -53.4Z" fill="#FED600"></path></g><g transform="translate(354 597)"><path d="M163.6 -54.5C181.9 3.4 146.1 77.6 86.6 121.3C27.1 165.1 -56.1 178.4 -109.2 141.9C-162.2 105.3 -185.1 18.9 -161.9 -45.7C-138.7 -110.3 -69.3 -153 1.6 -153.5C72.6 -154 145.2 -112.4 163.6 -54.5Z" fill="#FED600"></path></g></g></svg>