<svg id="visual" viewBox="0 0 900 600" width="900" height="600" xmlns="http://www.w3.org/2000/svg" xmlns:xlink="http://www.w3.org/1999/xlink" version="1.1"><rect x="0" y="0" width="900" height="600" fill="#015CBF"></rect><defs><linearGradient id="grad1_0" x1="33.3%" y1="100%" x2="100%" y2="0%"><stop offset="20%" stop-color="#015cbf" stop-opacity="1"></stop><stop offset="80%" stop-color="#015cbf" stop-opacity="1"></stop></linearGradient></defs><defs><linearGradient id="grad2_0" x1="0%" y1="100%" x2="66.7%" y2="0%"><stop offset="20%" stop-color="#015cbf" stop-opacity="1"></stop><stop offset="80%" stop-color="#015cbf" stop-opacity="1"></stop></linearGradient></defs><g transform="translate(900, 600)"><path d="M-270.4 0C-235.2 -21.6 -200 -43.2 -179.7 -58.4C-159.5 -73.6 -154.1 -82.4 -157.8 -114.6C-161.4 -146.8 -174.1 -202.5 -158.9 -218.8C-143.8 -235 -100.7 -211.9 -69.5 -214C-38.4 -216 -19.2 -243.2 0 -270.4L0 0Z" fill="#FED600"></path></g><g transform="translate(0, 0)"><path d="M270.4 0C234.3 17.3 198.1 34.5 195 63.3C191.8 92.2 221.6 132.6 218.8 158.9C215.9 185.3 180.4 197.5 152.2 209.5C124.1 221.6 103.3 233.4 79.1 243.5C55 253.6 27.5 262 0 270.4L0 0Z" fill="#FED600"></path></g></svg>