<svg width="128" height="84" viewBox="0 0 128 84" fill="none" xmlns="http://www.w3.org/2000/svg">
<rect width="128" height="84" fill="white"/>
<rect width="128" height="42" fill="#015CBF"/>
<rect y="42" width="128" height="42" fill="#FED600"/>
<path d="M46.7355 18.7464C46.6958 18.3454 46.5251 18.0339 46.2235 17.8118C45.9218 17.5897 45.5125 17.4787 44.9955 17.4787C44.6441 17.4787 44.3475 17.5284 44.1056 17.6278C43.8636 17.724 43.678 17.8582 43.5487 18.0305C43.4228 18.2029 43.3598 18.3984 43.3598 18.6172C43.3532 18.7995 43.3913 18.9586 43.4742 19.0945C43.5603 19.2304 43.678 19.348 43.8271 19.4474C43.9763 19.5436 44.1486 19.6281 44.3442 19.701C44.5397 19.7706 44.7486 19.8303 44.9706 19.88L45.8854 20.0987C46.3295 20.1982 46.7372 20.3307 47.1084 20.4964C47.4796 20.6622 47.8011 20.866 48.0729 21.108C48.3447 21.3499 48.5551 21.6349 48.7043 21.9631C48.8567 22.2912 48.9346 22.6674 48.9379 23.0916C48.9346 23.7147 48.7755 24.255 48.4607 24.7124C48.1491 25.1664 47.6984 25.5194 47.1084 25.7713C46.5218 26.0199 45.8141 26.1442 44.9855 26.1442C44.1636 26.1442 43.4477 26.0182 42.8378 25.7663C42.2313 25.5144 41.7573 25.1416 41.4159 24.6477C41.0779 24.1506 40.9005 23.5357 40.884 22.8033H42.9671C42.9903 23.1446 43.088 23.4297 43.2604 23.6584C43.4361 23.8838 43.6697 24.0545 43.9614 24.1705C44.2564 24.2831 44.5895 24.3395 44.9607 24.3395C45.3253 24.3395 45.6418 24.2865 45.9102 24.1804C46.182 24.0743 46.3925 23.9268 46.5416 23.7379C46.6908 23.549 46.7654 23.3319 46.7654 23.0866C46.7654 22.858 46.6974 22.6657 46.5615 22.5099C46.4289 22.3542 46.2334 22.2216 45.9749 22.1122C45.7197 22.0028 45.4065 21.9034 45.0352 21.8139L43.9266 21.5355C43.0682 21.3267 42.3904 21.0002 41.8932 20.5561C41.396 20.112 41.1491 19.5137 41.1524 18.7614C41.1491 18.1449 41.3132 17.6063 41.6446 17.1456C41.9794 16.6849 42.4384 16.3253 43.0218 16.0668C43.6051 15.8082 44.268 15.679 45.0104 15.679C45.7661 15.679 46.4256 15.8082 46.9891 16.0668C47.5558 16.3253 47.9967 16.6849 48.3115 17.1456C48.6264 17.6063 48.7888 18.1399 48.7987 18.7464H46.7355ZM52.5237 26.1442C52.0365 26.1442 51.6023 26.0597 51.2211 25.8906C50.84 25.7183 50.5384 25.4647 50.3163 25.13C50.0976 24.7919 49.9882 24.371 49.9882 23.8672C49.9882 23.4429 50.0661 23.0866 50.2219 22.7983C50.3776 22.5099 50.5898 22.2779 50.8582 22.1023C51.1267 21.9266 51.4316 21.794 51.773 21.7045C52.1177 21.6151 52.479 21.5521 52.8568 21.5156C53.3009 21.4692 53.6589 21.4261 53.9307 21.3864C54.2024 21.3433 54.3997 21.2803 54.5223 21.1974C54.6449 21.1146 54.7062 20.992 54.7062 20.8295V20.7997C54.7062 20.4848 54.6068 20.2412 54.4079 20.0689C54.2124 19.8965 53.934 19.8104 53.5727 19.8104C53.1916 19.8104 52.8883 19.8949 52.6629 20.0639C52.4375 20.2296 52.2884 20.4384 52.2155 20.6903L50.2567 20.5312C50.3561 20.0672 50.5516 19.6662 50.8433 19.3281C51.135 18.9867 51.5112 18.7249 51.9719 18.5426C52.4359 18.357 52.9728 18.2642 53.5827 18.2642C54.0069 18.2642 54.4129 18.3139 54.8007 18.4134C55.1918 18.5128 55.5381 18.6669 55.8398 18.8757C56.1447 19.0845 56.385 19.353 56.5606 19.6811C56.7363 20.0059 56.8241 20.3954 56.8241 20.8494V26H54.8156V24.9411H54.7559C54.6333 25.1797 54.4693 25.3902 54.2638 25.5724C54.0583 25.7514 53.8113 25.8923 53.523 25.995C53.2346 26.0945 52.9015 26.1442 52.5237 26.1442ZM53.1302 24.6825C53.4418 24.6825 53.7169 24.6212 53.9555 24.4986C54.1942 24.3726 54.3814 24.2036 54.5173 23.9915C54.6532 23.7794 54.7211 23.5391 54.7211 23.2706V22.4602C54.6549 22.5033 54.5637 22.5431 54.4477 22.5795C54.335 22.6127 54.2074 22.6442 54.0649 22.674C53.9224 22.7005 53.7799 22.7254 53.6373 22.7486C53.4948 22.7685 53.3656 22.7867 53.2496 22.8033C53.001 22.8397 52.7839 22.8977 52.5983 22.9773C52.4127 23.0568 52.2685 23.1645 52.1657 23.3004C52.063 23.433 52.0116 23.5987 52.0116 23.7976C52.0116 24.0859 52.116 24.3063 52.3248 24.4588C52.537 24.608 52.8054 24.6825 53.1302 24.6825ZM59.5013 28.8636C59.2329 28.8636 58.981 28.8421 58.7456 28.799C58.5136 28.7592 58.3214 28.7079 58.1689 28.6449L58.6462 27.0639C58.8948 27.1402 59.1185 27.1816 59.3174 27.1882C59.5196 27.1948 59.6936 27.1484 59.8394 27.049C59.9885 26.9496 60.1095 26.7805 60.2023 26.5419L60.3266 26.2188L57.5873 18.3636H59.8145L61.3955 23.9716H61.4751L63.0709 18.3636H65.3131L62.3451 26.8253C62.2026 27.2363 62.0087 27.5942 61.7634 27.8991C61.5215 28.2074 61.2149 28.4444 60.8437 28.6101C60.4724 28.7791 60.025 28.8636 59.5013 28.8636ZM78.1933 15.8182V26H76.3339L71.9042 19.5916H71.8296V26H69.6769V15.8182H71.5661L75.961 22.2216H76.0505V15.8182H78.1933ZM83.3824 26.1491C82.6101 26.1491 81.9423 25.9851 81.3788 25.657C80.8187 25.3255 80.3862 24.8648 80.0812 24.2749C79.7763 23.6816 79.6238 22.9938 79.6238 22.2116C79.6238 21.4228 79.7763 20.7334 80.0812 20.1435C80.3862 19.5502 80.8187 19.0895 81.3788 18.7614C81.9423 18.4299 82.6101 18.2642 83.3824 18.2642C84.1546 18.2642 84.8208 18.4299 85.3809 18.7614C85.9444 19.0895 86.3786 19.5502 86.6835 20.1435C86.9884 20.7334 87.1409 21.4228 87.1409 22.2116C87.1409 22.9938 86.9884 23.6816 86.6835 24.2749C86.3786 24.8648 85.9444 25.3255 85.3809 25.657C84.8208 25.9851 84.1546 26.1491 83.3824 26.1491ZM83.3923 24.5085C83.7436 24.5085 84.037 24.4091 84.2723 24.2102C84.5076 24.008 84.6849 23.733 84.8042 23.3849C84.9269 23.0369 84.9882 22.6409 84.9882 22.1967C84.9882 21.7526 84.9269 21.3565 84.8042 21.0085C84.6849 20.6605 84.5076 20.3854 84.2723 20.1832C84.037 19.9811 83.7436 19.88 83.3923 19.88C83.0377 19.88 82.7394 19.9811 82.4974 20.1832C82.2588 20.3854 82.0782 20.6605 81.9555 21.0085C81.8362 21.3565 81.7765 21.7526 81.7765 22.1967C81.7765 22.6409 81.8362 23.0369 81.9555 23.3849C82.0782 23.733 82.2588 24.008 82.4974 24.2102C82.7394 24.4091 83.0377 24.5085 83.3923 24.5085Z" fill="#FED600"/>
<path d="M40.6944 59.593V57.8182H49.0566V59.593H45.9395V68H43.8116V59.593H40.6944ZM52.7369 68.1491C51.9646 68.1491 51.2968 67.9851 50.7333 67.657C50.1732 67.3255 49.7406 66.8648 49.4357 66.2749C49.1308 65.6816 48.9783 64.9938 48.9783 64.2116C48.9783 63.4228 49.1308 62.7334 49.4357 62.1435C49.7406 61.5502 50.1732 61.0895 50.7333 60.7614C51.2968 60.4299 51.9646 60.2642 52.7369 60.2642C53.5091 60.2642 54.1753 60.4299 54.7354 60.7614C55.2989 61.0895 55.7331 61.5502 56.038 62.1435C56.3429 62.7334 56.4954 63.4228 56.4954 64.2116C56.4954 64.9938 56.3429 65.6816 56.038 66.2749C55.7331 66.8648 55.2989 67.3255 54.7354 67.657C54.1753 67.9851 53.5091 68.1491 52.7369 68.1491ZM52.7468 66.5085C53.0981 66.5085 53.3915 66.4091 53.6268 66.2102C53.8621 66.008 54.0394 65.733 54.1587 65.3849C54.2814 65.0369 54.3427 64.6409 54.3427 64.1967C54.3427 63.7526 54.2814 63.3565 54.1587 63.0085C54.0394 62.6605 53.8621 62.3854 53.6268 62.1832C53.3915 61.9811 53.0981 61.88 52.7468 61.88C52.3922 61.88 52.0939 61.9811 51.8519 62.1832C51.6133 62.3854 51.4326 62.6605 51.31 63.0085C51.1907 63.3565 51.131 63.7526 51.131 64.1967C51.131 64.6409 51.1907 65.0369 51.31 65.3849C51.4326 65.733 51.6133 66.008 51.8519 66.2102C52.0939 66.4091 52.3922 66.5085 52.7468 66.5085ZM63.4444 68L60.5311 57.8182H62.8826L64.568 64.8928H64.6525L66.5119 57.8182H68.5254L70.3798 64.9077H70.4693L72.1547 57.8182H74.5062L71.5929 68H69.4949L67.5559 61.343H67.4764L65.5424 68H63.4444ZM76.9759 68.1442C76.4886 68.1442 76.0545 68.0597 75.6733 67.8906C75.2921 67.7183 74.9905 67.4647 74.7685 67.13C74.5497 66.7919 74.4403 66.371 74.4403 65.8672C74.4403 65.4429 74.5182 65.0866 74.674 64.7983C74.8298 64.5099 75.0419 64.2779 75.3104 64.1023C75.5788 63.9266 75.8838 63.794 76.2251 63.7045C76.5698 63.6151 76.9311 63.5521 77.3089 63.5156C77.7531 63.4692 78.111 63.4261 78.3828 63.3864C78.6546 63.3433 78.8518 63.2803 78.9744 63.1974C79.0971 63.1146 79.1584 62.992 79.1584 62.8295V62.7997C79.1584 62.4848 79.0589 62.2412 78.8601 62.0689C78.6645 61.8965 78.3861 61.8104 78.0249 61.8104C77.6437 61.8104 77.3404 61.8949 77.1151 62.0639C76.8897 62.2296 76.7405 62.4384 76.6676 62.6903L74.7088 62.5312C74.8082 62.0672 75.0038 61.6662 75.2955 61.3281C75.5871 60.9867 75.9633 60.7249 76.424 60.5426C76.888 60.357 77.425 60.2642 78.0348 60.2642C78.459 60.2642 78.8651 60.3139 79.2528 60.4134C79.6439 60.5128 79.9903 60.6669 80.2919 60.8757C80.5968 61.0845 80.8371 61.353 81.0128 61.6811C81.1884 62.0059 81.2763 62.3954 81.2763 62.8494V68H79.2678V66.9411H79.2081C79.0855 67.1797 78.9214 67.3902 78.7159 67.5724C78.5104 67.7514 78.2635 67.8923 77.9751 67.995C77.6868 68.0945 77.3537 68.1442 76.9759 68.1442ZM77.5824 66.6825C77.8939 66.6825 78.169 66.6212 78.4077 66.4986C78.6463 66.3726 78.8336 66.2036 78.9695 65.9915C79.1054 65.7794 79.1733 65.5391 79.1733 65.2706V64.4602C79.107 64.5033 79.0159 64.5431 78.8999 64.5795C78.7872 64.6127 78.6596 64.6442 78.517 64.674C78.3745 64.7005 78.232 64.7254 78.0895 64.7486C77.947 64.7685 77.8177 64.7867 77.7017 64.8033C77.4531 64.8397 77.236 64.8977 77.0504 64.9773C76.8648 65.0568 76.7206 65.1645 76.6179 65.3004C76.5152 65.433 76.4638 65.5987 76.4638 65.7976C76.4638 66.0859 76.5682 66.3063 76.777 66.4588C76.9891 66.608 77.2576 66.6825 77.5824 66.6825ZM82.9194 68V60.3636H84.9727V61.696H85.0522C85.1914 61.2221 85.4251 60.8641 85.7532 60.6222C86.0813 60.3769 86.4592 60.2543 86.8867 60.2543C86.9928 60.2543 87.1071 60.2609 87.2298 60.2741C87.3524 60.2874 87.4601 60.3056 87.5529 60.3288V62.2081C87.4535 62.1783 87.3159 62.1518 87.1403 62.1286C86.9646 62.1054 86.8039 62.0938 86.658 62.0938C86.3465 62.0938 86.0681 62.1617 85.8228 62.2976C85.5808 62.4302 85.3886 62.6158 85.2461 62.8544C85.1069 63.093 85.0373 63.3681 85.0373 63.6797V68H82.9194Z" fill="#015CBF"/>
</svg>
